<?xml version="1.0" encoding="utf-8"?>
<!-- Generator: Adobe Illustrator 17.0.0, SVG Export Plug-In . SVG Version: 6.00 Build 0)  -->
<!DOCTYPE svg PUBLIC "-//W3C//DTD SVG 1.1//EN" "http://www.w3.org/Graphics/SVG/1.1/DTD/svg11.dtd">
<svg version="1.1" id="Layer_1" xmlns="http://www.w3.org/2000/svg" xmlns:xlink="http://www.w3.org/1999/xlink" x="0px" y="0px"
	 width="24px" height="24px" viewBox="0 0 24 24" style="enable-background:new 0 0 24 24;" xml:space="preserve">
<style type="text/css">
	.st0{fill:#6B6B6B;}
	.st1{fill:none;stroke:#6B6B6B;stroke-miterlimit:10;}
</style>
<g>
	<g>
		<path class="st0" d="M12,1c0.8,0,1.4,0.6,1.4,1.4c0,0,0,0.1,0,0.1l0,0.1l-0.1,0.9l0.9,0.2c0.8,0.2,1.6,0.5,2.3,0.9l0.8,0.5
			l0.5-0.7c0.1-0.1,0.1-0.1,0.1-0.2c0.3-0.2,0.6-0.4,0.9-0.4c0.4,0,0.7,0.1,1,0.4c0.3,0.3,0.4,0.6,0.4,1c0,0.4-0.1,0.7-0.4,0.9
			c-0.1,0-0.1,0.1-0.2,0.1l-0.7,0.5l0.5,0.8c0.4,0.7,0.7,1.5,1,2.3l0.2,0.9l0.9-0.1l0.1,0c0,0,0.1,0,0.1,0c0.8,0,1.4,0.6,1.4,1.4
			c0,0.8-0.6,1.4-1.4,1.4c0,0-0.1,0-0.1,0l-0.1,0l-0.9-0.1l-0.2,0.9c-0.2,0.8-0.5,1.6-1,2.3l-0.5,0.8l0.7,0.5
			c0.1,0.1,0.1,0.1,0.2,0.1c0.2,0.3,0.4,0.6,0.4,0.9c0,0.4-0.1,0.7-0.4,1c-0.3,0.3-0.6,0.4-1,0.4c-0.4,0-0.7-0.1-0.9-0.4
			c0-0.1-0.1-0.1-0.1-0.2l-0.5-0.7l-0.8,0.5c-0.7,0.4-1.5,0.7-2.3,1l-0.9,0.2l0.1,0.9l0,0.1c0,0,0,0.1,0,0.1c0,0.8-0.6,1.4-1.4,1.4
			c-0.8,0-1.4-0.6-1.4-1.4c0,0,0-0.1,0-0.1l0-0.1l0.1-0.9l-0.9-0.2c-0.8-0.2-1.6-0.5-2.3-1l-0.8-0.5l-0.5,0.7
			c-0.1,0.1-0.1,0.1-0.1,0.2c-0.3,0.2-0.6,0.4-0.9,0.4c-0.4,0-0.7-0.1-1-0.4c-0.3-0.3-0.4-0.6-0.4-1c0-0.4,0.1-0.7,0.4-0.9
			c0.1,0,0.1-0.1,0.2-0.1l0.7-0.5l-0.5-0.8c-0.4-0.7-0.7-1.5-1-2.3l-0.2-0.9l-0.9,0.1l-0.1,0c0,0-0.1,0-0.1,0C1.6,13.4,1,12.8,1,12
			c0-0.8,0.6-1.4,1.4-1.4c0,0,0.1,0,0.1,0l0.1,0l0.9,0.1l0.2-0.9c0.2-0.8,0.5-1.6,1-2.3l0.5-0.8L4.4,6.3C4.3,6.2,4.3,6.2,4.2,6.2
			C3.9,5.9,3.8,5.6,3.8,5.2c0-0.4,0.1-0.7,0.4-1c0.3-0.3,0.6-0.4,1-0.4c0.3,0,0.7,0.1,0.9,0.4c0,0.1,0.1,0.1,0.1,0.2l0.5,0.7
			l0.8-0.5c0.7-0.4,1.5-0.7,2.3-0.9l0.9-0.2l-0.1-0.9l0-0.1c0,0,0-0.1,0-0.1C10.6,1.6,11.2,1,12,1 M12,0c-1.3,0-2.4,1.1-2.4,2.4
			c0,0.1,0,0.2,0,0.3C8.7,2.9,7.9,3.3,7.1,3.8C7,3.7,7,3.6,6.9,3.5C6.4,3,5.8,2.8,5.2,2.8S4,3,3.5,3.5C2.6,4.5,2.6,6,3.5,6.9
			C3.6,7,3.7,7,3.8,7.1C3.3,7.9,2.9,8.7,2.7,9.6c-0.1,0-0.2,0-0.3,0C1.1,9.6,0,10.7,0,12s1.1,2.4,2.4,2.4c0.1,0,0.2,0,0.3,0
			c0.2,0.9,0.6,1.8,1.1,2.6C3.7,17,3.6,17,3.5,17.1c-0.9,0.9-0.9,2.5,0,3.4C4,21,4.6,21.2,5.2,21.2s1.2-0.2,1.7-0.7
			C7,20.4,7,20.3,7.1,20.2c0.8,0.5,1.6,0.8,2.6,1.1c0,0.1,0,0.2,0,0.3c0,1.3,1.1,2.4,2.4,2.4c1.3,0,2.4-1.1,2.4-2.4
			c0-0.1,0-0.2,0-0.3c0.9-0.2,1.8-0.6,2.6-1.1c0.1,0.1,0.1,0.2,0.2,0.3c0.5,0.5,1.1,0.7,1.7,0.7s1.2-0.2,1.7-0.7
			c0.9-0.9,0.9-2.5,0-3.4c-0.1-0.1-0.2-0.1-0.3-0.2c0.5-0.8,0.8-1.6,1.1-2.6c0.1,0,0.2,0,0.3,0c1.3,0,2.4-1.1,2.4-2.4
			s-1.1-2.4-2.4-2.4c-0.1,0-0.2,0-0.3,0c-0.2-0.9-0.6-1.8-1.1-2.6C20.3,7,20.4,7,20.5,6.9c0.9-0.9,0.9-2.5,0-3.4
			C20,3,19.4,2.8,18.8,2.8S17.6,3,17.1,3.5C17,3.6,17,3.7,16.9,3.8c-0.8-0.5-1.6-0.8-2.6-1.1c0-0.1,0-0.2,0-0.3
			C14.4,1.1,13.3,0,12,0L12,0z"/>
	</g>
	<circle class="st1" cx="12" cy="12" r="3.2"/>
	<circle class="st1" cx="12" cy="12" r="6.5"/>
</g>
</svg>
