<?xml version="1.0" encoding="utf-8"?>
<!-- Generator: Adobe Illustrator 17.0.0, SVG Export Plug-In . SVG Version: 6.00 Build 0)  -->
<!DOCTYPE svg PUBLIC "-//W3C//DTD SVG 1.1//EN" "http://www.w3.org/Graphics/SVG/1.1/DTD/svg11.dtd">
<svg version="1.1" id="Layer_1" xmlns="http://www.w3.org/2000/svg" xmlns:xlink="http://www.w3.org/1999/xlink" x="0px" y="0px"
	 width="24px" height="24px" viewBox="0 0 24 24" style="enable-background:new 0 0 24 24;" xml:space="preserve">
<style type="text/css">
	.st0{fill:#6B6B6B;}
	.st1{fill:none;stroke:#6B6B6B;stroke-miterlimit:10;}
</style>
<path class="st0" d="M12,1.2c-6.1,0-11,4.9-11,11s4.9,11,11,11c6.1,0,11-4.9,11-11S18.1,1.2,12,1.2z M12,2.2
	c5.6,0,10.1,4.5,10.1,10.1c0,2.3-0.8,4.5-2.1,6.2c-1-2.1-2.6-3.6-4.6-4.4c1-0.9,1.6-2.2,1.6-3.6c0-2.8-2.3-5.1-5.1-5.1
	s-5.1,2.3-5.1,5.1c0,1.5,0.6,2.8,1.6,3.7C6.5,14.9,5,16.4,4,18.4c-1.3-1.7-2.1-3.8-2.1-6.2C1.9,6.7,6.4,2.2,12,2.2z M14.3,13.7
	c-0.4,0.3-0.9,0.5-1.4,0.7c-0.3,0.1-0.7,0.2-1.1,0.2c-0.4,0-0.7-0.1-1-0.1c-0.5-0.1-1-0.4-1.4-0.7c-1-0.8-1.7-2-1.7-3.3
	c0-2.3,1.9-4.1,4.1-4.1S16,8.1,16,10.4C16,11.7,15.3,12.9,14.3,13.7z M12,22.3c-2.9,0-5.5-1.2-7.4-3.2c1-2.1,2.6-3.6,4.7-4.4
	c0.7,0.4,1.6,0.7,2.5,0.7c1,0,1.9-0.3,2.6-0.8c2.1,0.7,3.8,2.2,4.9,4.4C17.5,21.1,14.9,22.3,12,22.3z"/>
</svg>
